<svg width="50" height="50" viewBox="0 0 50 50" fill="none" xmlns="http://www.w3.org/2000/svg">
<ellipse cx="47.8989" cy="47.8989" rx="47.8989" ry="47.8989" transform="matrix(-1 0 0 1 197.031 100.596)" fill="#80EEFB"/>
<path d="M224.531 34.7307C202.04 19.7181 185.811 13.9012 146.696 10.7812C118.56 43.3938 113.951 65.0872 122.746 108.974L152.683 101.789C160.523 65.9457 179.195 52.6677 224.531 34.7307Z" fill="#80EEFB"/>
<path d="M283.311 119.648C277.641 93.2076 270.054 77.727 244.174 48.2324C201.268 52.0178 182.846 64.3653 158.572 101.971L185.051 117.679C215.651 97.4334 238.296 100.922 283.311 119.648Z" fill="#80EEFB"/>
<path d="M264.061 223.488C278.749 200.783 284.333 184.473 286.891 145.317C253.879 117.652 232.121 113.355 188.365 122.778L195.979 152.609C231.931 159.934 245.475 178.414 264.061 223.488Z" fill="#80EEFB"/>
<path d="M119.481 16.5686C93.0804 22.4233 77.6531 30.1172 48.3396 56.2031C52.4239 99.0807 64.8995 117.417 102.673 141.428L118.196 114.84C97.7382 84.3825 101.069 61.7135 119.481 16.5686Z" fill="#80EEFB"/>
<path d="M35.2366 75.1765C20.5088 97.8557 14.897 114.156 12.2706 153.308C45.2355 181.03 66.9852 185.365 110.758 176.017L103.196 146.173C67.2563 138.786 53.7439 120.283 35.2366 75.1765Z" fill="#80EEFB"/>
<path d="M16.544 178.22C22.4362 204.612 30.1521 220.029 56.2796 249.305C99.1514 245.16 117.469 232.658 141.427 194.85L114.818 179.365C84.3888 199.866 61.715 196.568 16.544 178.22Z" fill="#80EEFB"/>
<path d="M78.0445 266.969C101.358 280.671 117.892 285.55 157.122 286.428C183.347 252.26 186.707 230.338 175.417 187.026L145.94 195.911C140.163 232.144 122.28 246.468 78.0445 266.969Z" fill="#80EEFB"/>
<path d="M178.247 283.397C204.659 277.595 220.101 269.931 249.466 243.903C245.466 201.017 233.026 182.657 195.3 158.572L179.725 185.128C200.123 215.626 196.748 238.289 178.247 283.397Z" fill="#80EEFB"/>
</svg>
