<svg width="24" height="24" viewBox="0 0 24 24" fill="none" xmlns="http://www.w3.org/2000/svg">
<ellipse cx="3.83191" cy="3.83191" rx="3.83191" ry="3.83191" transform="matrix(-1 0 0 1 15.7656 8.04688)" fill="#80EEFB"/>
<path d="M17.9609 2.77924C16.1616 1.57823 14.8633 1.11287 11.7341 0.863281C9.48327 3.47229 9.11454 5.20776 9.81813 8.7187L12.2131 8.14391C12.8403 5.27643 14.3341 4.21419 17.9609 2.77924Z" fill="#80EEFB"/>
<path d="M22.6649 9.57146C22.2113 7.45622 21.6044 6.21777 19.5339 3.8582C16.1015 4.16103 14.6277 5.14883 12.6858 8.15728L14.8041 9.4139C17.252 7.79428 19.0637 8.07334 22.6649 9.57146Z" fill="#80EEFB"/>
<path d="M21.1233 17.879C22.2984 16.0627 22.7451 14.7578 22.9497 11.6254C20.3087 9.41219 18.5681 9.06839 15.0677 9.82226L15.6767 12.2087C18.5529 12.7947 19.6365 14.2731 21.1233 17.879Z" fill="#80EEFB"/>
<path d="M9.55534 1.32549C7.44331 1.79387 6.20912 2.40938 3.86404 4.49625C4.19079 7.92646 5.18884 9.39333 8.21075 11.3142L9.45257 9.18724C7.81593 6.7506 8.08236 4.93708 9.55534 1.32549Z" fill="#80EEFB"/>
<path d="M2.82205 6.0149C1.64383 7.82924 1.19489 9.13328 0.984777 12.2654C3.62196 14.4832 5.36194 14.83 8.86373 14.0822L8.25879 11.6947C5.38363 11.1037 4.30263 9.62338 2.82205 6.0149Z" fill="#80EEFB"/>
<path d="M1.32352 14.2572C1.7949 16.3686 2.41217 17.6019 4.50237 19.944C7.93211 19.6124 9.39756 18.6123 11.3141 15.5876L9.18541 14.3488C6.7511 15.9889 4.9372 15.7251 1.32352 14.2572Z" fill="#80EEFB"/>
<path d="M6.242 21.3567C8.10707 22.4529 9.42983 22.8432 12.5682 22.9134C14.6662 20.18 14.935 18.4263 14.0318 14.9613L11.6737 15.6721C11.2115 18.5708 9.78087 19.7167 6.242 21.3567Z" fill="#80EEFB"/>
<path d="M14.2598 22.6718C16.3727 22.2076 17.6081 21.5945 19.9573 19.5122C19.6373 16.0814 18.6421 14.6125 15.624 12.6857L14.378 14.8103C16.0098 17.2501 15.7398 19.0631 14.2598 22.6718Z" fill="#80EEFB"/>
</svg>
